<mxfile host="Electron" agent="Mozilla/5.0 (Windows NT 10.0; Win64; x64) AppleWebKit/537.36 (KHTML, like Gecko) draw.io/24.7.8 Chrome/128.0.6613.36 Electron/32.0.1 Safari/537.36" version="24.7.8">
  <diagram name="PÃ¡gina-1" id="h6G9cOftwI88fb5nXVO8">
    <mxGraphModel dx="2261" dy="836" grid="1" gridSize="10" guides="1" tooltips="1" connect="1" arrows="1" fold="1" page="1" pageScale="1" pageWidth="827" pageHeight="1169" math="0" shadow="0">
      <root>
        <mxCell id="0" />
        <mxCell id="1" parent="0" />
        <mxCell id="kzsvPTgR-kJCeTGIrcHW-3" value="Estaciones" style="swimlane;childLayout=stackLayout;horizontal=1;startSize=50;horizontalStack=0;rounded=1;fontSize=14;fontStyle=0;strokeWidth=2;resizeParent=0;resizeLast=1;shadow=0;dashed=0;align=center;arcSize=4;whiteSpace=wrap;html=1;" parent="1" vertex="1">
          <mxGeometry x="640" y="30" width="160" height="120" as="geometry" />
        </mxCell>
        <mxCell id="kzsvPTgR-kJCeTGIrcHW-4" value="&lt;u&gt;ID&lt;/u&gt;&lt;div&gt;NOMBRE&lt;/div&gt;&lt;div&gt;UBICACION&lt;/div&gt;&lt;div&gt;TIPO_ESTACION&lt;/div&gt;" style="align=left;strokeColor=none;fillColor=none;spacingLeft=4;fontSize=12;verticalAlign=top;resizable=0;rotatable=0;part=1;html=1;" parent="kzsvPTgR-kJCeTGIrcHW-3" vertex="1">
          <mxGeometry y="50" width="160" height="70" as="geometry" />
        </mxCell>
        <mxCell id="kzsvPTgR-kJCeTGIrcHW-5" value="Clientes" style="swimlane;childLayout=stackLayout;horizontal=1;startSize=50;horizontalStack=0;rounded=1;fontSize=14;fontStyle=0;strokeWidth=2;resizeParent=0;resizeLast=1;shadow=0;dashed=0;align=center;arcSize=4;whiteSpace=wrap;html=1;" parent="1" vertex="1">
          <mxGeometry x="-30" y="30" width="160" height="160" as="geometry" />
        </mxCell>
        <mxCell id="kzsvPTgR-kJCeTGIrcHW-6" value="&lt;u&gt;ID&lt;/u&gt;&lt;div&gt;NOMBRE&lt;/div&gt;&lt;div&gt;APPELLIDO&lt;/div&gt;&lt;div&gt;DIRECCION&lt;/div&gt;&lt;div&gt;TELEFONO&lt;/div&gt;&lt;div&gt;EMAIL&lt;/div&gt;" style="align=left;strokeColor=none;fillColor=none;spacingLeft=4;fontSize=12;verticalAlign=top;resizable=0;rotatable=0;part=1;html=1;" parent="kzsvPTgR-kJCeTGIrcHW-5" vertex="1">
          <mxGeometry y="50" width="160" height="110" as="geometry" />
        </mxCell>
        <mxCell id="kzsvPTgR-kJCeTGIrcHW-7" value="Paquete" style="swimlane;childLayout=stackLayout;horizontal=1;startSize=50;horizontalStack=0;rounded=1;fontSize=14;fontStyle=0;strokeWidth=2;resizeParent=0;resizeLast=1;shadow=0;dashed=0;align=center;arcSize=4;whiteSpace=wrap;html=1;" parent="1" vertex="1">
          <mxGeometry x="430" y="30" width="160" height="150" as="geometry" />
        </mxCell>
        <mxCell id="kzsvPTgR-kJCeTGIrcHW-8" value="&lt;u&gt;ID&lt;/u&gt;&lt;div&gt;PESO&lt;/div&gt;&lt;div&gt;DIMENSIONES&lt;/div&gt;&lt;div&gt;FECHA_ENVIO&lt;/div&gt;&lt;div&gt;REMITENTE&lt;/div&gt;&lt;div&gt;DESTINATARIO&lt;/div&gt;" style="align=left;strokeColor=none;fillColor=none;spacingLeft=4;fontSize=12;verticalAlign=top;resizable=0;rotatable=0;part=1;html=1;" parent="kzsvPTgR-kJCeTGIrcHW-7" vertex="1">
          <mxGeometry y="50" width="160" height="100" as="geometry" />
        </mxCell>
        <mxCell id="kzsvPTgR-kJCeTGIrcHW-9" value="Historial" style="swimlane;childLayout=stackLayout;horizontal=1;startSize=50;horizontalStack=0;rounded=1;fontSize=14;fontStyle=0;strokeWidth=2;resizeParent=0;resizeLast=1;shadow=0;dashed=0;align=center;arcSize=4;whiteSpace=wrap;html=1;" parent="1" vertex="1">
          <mxGeometry x="420" y="250" width="180" height="120" as="geometry" />
        </mxCell>
        <mxCell id="kzsvPTgR-kJCeTGIrcHW-10" value="FECHA_LLEGADA&lt;div&gt;FECHA_SALIDA&lt;/div&gt;&lt;div&gt;EMPLEADO RESPONSABLE&lt;/div&gt;" style="align=left;strokeColor=none;fillColor=none;spacingLeft=4;fontSize=12;verticalAlign=top;resizable=0;rotatable=0;part=1;html=1;" parent="kzsvPTgR-kJCeTGIrcHW-9" vertex="1">
          <mxGeometry y="50" width="180" height="70" as="geometry" />
        </mxCell>
        <mxCell id="kzsvPTgR-kJCeTGIrcHW-11" value="Empleados" style="swimlane;childLayout=stackLayout;horizontal=1;startSize=50;horizontalStack=0;rounded=1;fontSize=14;fontStyle=0;strokeWidth=2;resizeParent=0;resizeLast=1;shadow=0;dashed=0;align=center;arcSize=4;whiteSpace=wrap;html=1;" parent="1" vertex="1">
          <mxGeometry x="890" y="30" width="160" height="140" as="geometry" />
        </mxCell>
        <mxCell id="kzsvPTgR-kJCeTGIrcHW-12" value="&lt;u&gt;ID&lt;/u&gt;&lt;div&gt;NOMBRE&lt;/div&gt;&lt;div&gt;APPELLIDO&lt;/div&gt;&lt;div&gt;POSICION&lt;/div&gt;&lt;div&gt;ESTACION_TRABAJO&lt;/div&gt;" style="align=left;strokeColor=none;fillColor=none;spacingLeft=4;fontSize=12;verticalAlign=top;resizable=0;rotatable=0;part=1;html=1;" parent="kzsvPTgR-kJCeTGIrcHW-11" vertex="1">
          <mxGeometry y="50" width="160" height="90" as="geometry" />
        </mxCell>
        <mxCell id="kzsvPTgR-kJCeTGIrcHW-14" value="Envio" style="swimlane;childLayout=stackLayout;horizontal=1;startSize=50;horizontalStack=0;rounded=1;fontSize=14;fontStyle=0;strokeWidth=2;resizeParent=0;resizeLast=1;shadow=0;dashed=0;align=center;arcSize=4;whiteSpace=wrap;html=1;" parent="1" vertex="1">
          <mxGeometry x="200" y="50" width="160" height="120" as="geometry" />
        </mxCell>
        <mxCell id="kzsvPTgR-kJCeTGIrcHW-15" value="ID_ENVIO&lt;div&gt;ID_APQUETE&lt;/div&gt;" style="align=left;strokeColor=none;fillColor=none;spacingLeft=4;fontSize=12;verticalAlign=top;resizable=0;rotatable=0;part=1;html=1;" parent="kzsvPTgR-kJCeTGIrcHW-14" vertex="1">
          <mxGeometry y="50" width="160" height="70" as="geometry" />
        </mxCell>
        <mxCell id="kzsvPTgR-kJCeTGIrcHW-17" value="" style="endArrow=none;html=1;rounded=0;exitX=0.5;exitY=1;exitDx=0;exitDy=0;entryX=0.5;entryY=0;entryDx=0;entryDy=0;" parent="1" source="kzsvPTgR-kJCeTGIrcHW-8" target="kzsvPTgR-kJCeTGIrcHW-9" edge="1">
          <mxGeometry relative="1" as="geometry">
            <mxPoint x="470" y="90" as="sourcePoint" />
            <mxPoint x="630" y="90" as="targetPoint" />
          </mxGeometry>
        </mxCell>
        <mxCell id="kzsvPTgR-kJCeTGIrcHW-18" value="1:1" style="text;html=1;align=center;verticalAlign=middle;resizable=0;points=[];autosize=1;strokeColor=none;fillColor=none;" parent="1" vertex="1">
          <mxGeometry x="470" y="200" width="40" height="30" as="geometry" />
        </mxCell>
      </root>
    </mxGraphModel>
  </diagram>
</mxfile>
